<?xml version="1.0" encoding="UTF-8"?>
<!DOCTYPE svg PUBLIC "-//W3C//DTD SVG 1.1//EN" "http://www.w3.org/Graphics/SVG/1.1/DTD/svg11.dtd">
<!-- Creator: CorelDRAW X8 -->
<svg xmlns="http://www.w3.org/2000/svg" xml:space="preserve" width="8.5in" height="11in" version="1.1" style="shape-rendering:geometricPrecision; text-rendering:geometricPrecision; image-rendering:optimizeQuality; fill-rule:evenodd; clip-rule:evenodd"
viewBox="0 0 8500 11000"
 xmlns:xlink="http://www.w3.org/1999/xlink">
 <defs>
  <style type="text/css">
   <![CDATA[
    .str2 {stroke:#FEFEFE;stroke-width:66.6654}
    .str1 {stroke:#FEFEFE;stroke-width:59.9961}
    .str0 {stroke:#FEFEFE;stroke-width:116.665}
    .fil1 {fill:none}
    .fil3 {fill:#FEFEFE}
    .fil2 {fill:#373435}
    .fil0 {fill:white}
   ]]>
  </style>
 </defs>
 <g id="Layer_x0020_1">
  <metadata id="CorelCorpID_0Corel-Layer"/>
  <path class="fil0" d="M2788 1252c131,-34 155,217 203,404 41,165 62,354 167,451 102,95 581,125 758,171 79,21 26,93 175,147 224,82 340,-39 475,-107 101,-51 142,23 185,81 117,160 240,169 439,176 156,6 150,-4 219,95 40,57 103,106 178,131 52,17 93,22 144,-4 51,-25 39,-46 78,-88l363 191c-8,311 199,224 410,155 331,-107 316,-138 479,-202 70,45 56,106 173,145 60,20 225,-7 312,-5 318,7 315,-66 495,138 -45,30 -154,65 -216,92l-636 292c-656,315 -506,509 -1022,835 -477,301 -172,65 -512,417 -78,81 -96,66 -93,221 3,163 18,455 -13,602 -118,52 -168,103 -275,156 -53,26 -97,52 -130,85 -53,54 -49,69 -78,150 -26,71 -173,141 -108,317 41,112 134,86 209,239 -90,161 -78,111 -103,353 -16,154 -21,314 -12,468 12,196 85,199 179,295 88,89 142,153 312,159 60,134 331,173 427,300 20,26 29,70 46,103 61,119 68,76 152,144 58,47 79,96 159,136 83,42 150,38 196,101 125,174 128,214 103,480 -237,20 -2311,4 -2607,4l-2437 0c-26,0 -55,1 -81,0l-80 -17c-16,-20 -11,-1918 -7,-2203 3,-224 -22,-335 -261,-405 -53,-15 1,-23 -55,13 6,-67 35,-30 -19,-87 -191,-202 251,-134 219,-516 -7,-75 58,-403 -41,-605 -75,-154 -100,-53 -117,-232 -19,-202 -56,-91 -51,-195 1,-40 12,-29 2,-81 -15,-77 -27,-43 -15,-150 16,-130 -45,-372 -47,-461 -1,-109 22,-236 -15,-335 -41,-110 13,-236 -77,-447l-105 -245c-37,-72 -22,-59 -36,-141 -19,-114 -64,-46 -71,-272 -3,-118 6,-233 0,-352 -6,-113 3,-59 30,-140 46,-138 -113,-293 -97,-418 455,-6 913,-1 1369,-1 139,0 570,31 654,-37 25,-20 113,-171 129,-208 55,-128 -55,-145 -22,-293zm5531 1741c-118,-3 -105,37 -194,47 -73,-45 -86,-97 -177,-137 -92,-40 -471,-31 -580,-15 -126,17 -148,-22 -200,-92 -66,-87 -122,-67 -213,-14 -60,36 -128,68 -200,97 -696,278 -362,32 -526,-74 -75,-48 -413,-231 -486,-234l-2 90c-7,-6 -14,-12 -23,-19l-43 56c-204,9 -142,-204 -384,-230 -269,-29 -317,33 -466,-157 -252,-320 -335,69 -653,20 -134,-21 -95,-74 -140,-153 -61,-22 -179,-13 -265,-32 -78,-18 -148,-41 -226,-56 -221,-44 -314,31 -378,-202 -118,-427 -103,-768 -409,-760 -36,40 -52,24 -75,97 -69,226 138,168 -74,449 -116,15 -1617,6 -1884,4 -132,0 -131,-9 -196,66 16,59 42,157 52,214 14,73 80,147 73,201 -12,97 -43,-39 -34,245 4,141 -28,405 39,524 47,82 25,131 66,216l158 408c19,87 -16,161 14,256 33,107 31,123 26,252 -4,112 20,182 23,259 1,52 -24,42 -7,94 67,208 23,70 22,253 0,68 24,80 20,133 -4,55 -36,48 -3,110 26,49 38,14 52,100 17,106 2,140 66,214 38,44 90,101 95,183 13,201 35,194 -12,363 -23,85 1,34 11,111 32,254 -394,244 -236,522 119,211 257,159 321,244 47,61 30,165 30,254 0,262 -19,2157 10,2234 15,9 -1,5 31,11l2677 3c315,0 2621,25 2711,-10 27,-57 19,-261 13,-341 -10,-138 -52,-149 -114,-240 -57,-85 -87,-100 -207,-142 -109,-38 -127,-97 -197,-154 -50,-40 -61,-19 -99,-77 -32,-50 -15,-168 -243,-280 -80,-40 -174,-64 -228,-123 -38,-40 -31,-70 -92,-81 -88,-15 -69,18 -154,-37 -76,-49 -112,-110 -184,-165 -109,-84 -62,-485 -46,-620 17,-154 5,-173 82,-270 63,-80 -19,-189 -69,-235 -58,-55 -168,-80 -125,-202 18,-51 49,-63 78,-97 64,-73 -2,-169 205,-237 194,-65 49,-43 166,-106 142,-75 165,-58 162,-366 -2,-116 -2,-234 -3,-350 -2,-85 -23,-123 119,-230 85,-64 66,-113 167,-183 230,-159 456,-233 701,-538 241,-299 329,-333 720,-518 155,-74 318,-152 481,-219 85,-35 170,-65 250,-100 88,-39 157,-96 227,-132l-21 -102z"/>
  <path class="fil1 str0" d="M3276 4394c693,0 1254,562 1254,1255 0,693 -561,1255 -1254,1255 -693,0 -1255,-562 -1255,-1255 0,-693 562,-1255 1255,-1255z"/>
  <polygon class="fil2 str1" points="1993,5644 2306,5644 2306,5654 1993,5654 "/>
  <polygon class="fil2 str1" points="2362,6559 2583,6338 2590,6345 2369,6566 "/>
  <polygon class="fil2 str1" points="3942,4980 4163,4759 4170,4766 3949,4987 "/>
  <polygon class="fil2 str1" points="4228,5644 4541,5644 4541,5654 4228,5654 "/>
  <polygon class="fil2 str1" points="3271,4699 3271,4387 3281,4387 3281,4699 "/>
  <polygon class="fil2 str1" points="3271,6917 3271,6604 3281,6604 3281,6917 "/>
  <polygon class="fil2 str1" points="4163,6531 3942,6310 3949,6303 4170,6524 "/>
  <polygon class="fil2 str1" points="2557,5004 2336,4783 2343,4776 2564,4997 "/>
  <path class="fil1 str2" d="M3276 4971c374,0 677,304 677,678 0,374 -303,678 -677,678 -375,0 -678,-304 -678,-678 0,-374 303,-678 678,-678z"/>
  <path class="fil3" d="M3276 5354c121,0 219,98 219,219 0,122 -98,220 -219,220 -121,0 -220,-98 -220,-220 0,-121 99,-219 220,-219z"/>
  <polygon class="fil3 str1" points="3227,5984 3227,5672 3324,5672 3324,5984 "/>
 </g>
</svg>
